<?xml version="1.0" encoding="UTF-8" standalone="no"?>
<!-- Generator: Gravit.io -->
<svg xmlns="http://www.w3.org/2000/svg" xmlns:xlink="http://www.w3.org/1999/xlink" style="isolation:isolate" viewBox="0 0 16 16" width="16pt" height="16pt"><defs><clipPath id="_clipPath_iHFoUneMlrlFls9fKmKwWDBPTjsvPwUU"><rect width="16" height="16"/></clipPath></defs><g clip-path="url(#_clipPath_iHFoUneMlrlFls9fKmKwWDBPTjsvPwUU)"><g><ellipse vector-effect="non-scaling-stroke" cx="3.7941648675023116" cy="9.999999999999998" rx="2.803141994421832" ry="3" fill="rgb(224,224,224)"/><path d=" M 4.996 1 L 4.996 8.714 L 6.597 9.571 L 6.597 4.429 L 9 5.286 L 9 2.714 L 4.996 1 Z " fill="rgb(224,224,224)"/></g><g><circle vector-effect="non-scaling-stroke" cx="8" cy="10.241808794999999" r="1" fill="rgb(252,156,156)"/><path d=" M 9.59 8.65 L 10.65 7.59 C 11.35 8.29 11.75 9.25 11.75 10.24 C 11.75 11.24 11.35 12.19 10.65 12.89 L 9.59 11.83 C 10.01 11.41 10.25 10.84 10.25 10.24 C 10.25 9.65 10.01 9.07 9.59 8.65 Z " fill="rgb(252,156,156)"/><path d=" M 11.71 6.53 L 12.77 5.47 C 14.04 6.73 14.75 8.45 14.75 10.24 C 14.75 12.03 14.04 13.75 12.77 15.01 L 11.71 13.95 C 12.7 12.97 13.25 11.63 13.25 10.24 C 13.25 8.85 12.7 7.51 11.71 6.53 Z " fill="rgb(252,156,156)"/></g></g></svg>