<?xml version="1.0" encoding="UTF-8" standalone="no"?>
<!-- Generator: Gravit.io -->
<svg xmlns="http://www.w3.org/2000/svg" xmlns:xlink="http://www.w3.org/1999/xlink" style="isolation:isolate" viewBox="0 0 16 16" width="16pt" height="16pt"><defs><clipPath id="_clipPath_RpLnQC92N4wvdBSzaHSXN6mdJYA2B7Tn"><rect width="16" height="16"/></clipPath></defs><g clip-path="url(#_clipPath_RpLnQC92N4wvdBSzaHSXN6mdJYA2B7Tn)"><g><ellipse vector-effect="non-scaling-stroke" cx="3.7941648675023116" cy="9.999999999999998" rx="2.803141994421832" ry="3" fill="rgb(224,224,224)"/><path d=" M 4.996 1 L 4.996 8.714 L 6.597 9.571 L 6.597 4.429 L 9 5.286 L 9 2.714 L 4.996 1 Z " fill="rgb(224,224,224)"/></g><path d=" M 1 7.282 L 1 7 L 1.271 7 C 1.176 7.089 1.086 7.183 1 7.282 Z  M 6.446 12.779 L 7 15 L 9 15 L 9.564 12.742 C 9.8 12.666 10.03 12.573 10.252 12.463 L 12.242 13.656 L 13.656 12.242 L 12.461 10.248 C 12.573 10.027 12.668 9.798 12.746 9.563 L 15 9 L 15 7 L 12.742 6.436 C 12.666 6.2 12.573 5.97 12.463 5.748 L 13.656 3.758 L 12.242 2.344 L 10.248 3.539 C 10.166 3.498 10.084 3.459 10 3.422 L 10 5 C 10 5.519 9.645 6.124 9.192 6.398 C 9.683 6.76 10 7.343 10 8 C 10 9.105 9.105 10 8 10 C 7.826 10 7.656 9.978 7.498 9.932 C 7.5 9.954 7.5 9.977 7.5 10 C 7.5 11.079 7.098 12.06 6.446 12.779 Z  M 6.252 7.03 C 6.256 7.02 6.262 7.01 6.268 7 L 6.229 7 C 6.238 7.008 6.247 7.017 6.252 7.03 Z " fill-rule="evenodd" fill="rgb(224,224,224)"/></g></svg>