<?xml version="1.0" encoding="UTF-8" standalone="no"?>
<!-- Generator: Gravit.io -->
<svg xmlns="http://www.w3.org/2000/svg" xmlns:xlink="http://www.w3.org/1999/xlink" style="isolation:isolate" viewBox="0 0 16 16" width="16pt" height="16pt"><defs><clipPath id="_clipPath_G7YZTC0qy4DHcGTQtzOmSSQspLOzneJd"><rect width="16" height="16"/></clipPath></defs><g clip-path="url(#_clipPath_G7YZTC0qy4DHcGTQtzOmSSQspLOzneJd)"><path d=" M 4.138 4.814 C 3.429 5.684 3 6.792 3 8 L 3 8 C 3 10.76 5.24 13 8 13 C 9.208 13 10.316 12.571 11.186 11.862 C 10.807 11.959 10.408 12 10 12 C 9.14 12 8.323 11.819 7.592 11.476 C 6.813 11.385 6.084 11.033 5.53 10.47 C 4.967 9.916 4.615 9.187 4.524 8.408 L 4.524 8.408 C 4.181 7.677 4 6.86 4 6 C 4 5.592 4.041 5.193 4.138 4.814 Z " fill-rule="evenodd" fill="rgb(224,224,224)"/><path d=" M 2.138 6.814 C 1.429 7.684 1 8.792 1 10 L 1 10 C 1 12.76 3.24 15 6 15 C 7.208 15 8.316 14.571 9.186 13.862 C 8.807 13.959 8.408 14 8 14 C 7.14 14 6.323 13.819 5.592 13.476 C 4.813 13.385 4.084 13.033 3.53 12.47 C 2.967 11.916 2.615 11.187 2.524 10.408 L 2.524 10.408 C 2.181 9.677 2 8.86 2 8 C 2 7.592 2.041 7.193 2.138 6.814 Z " fill-rule="evenodd" fill="rgb(224,224,224)"/><path d=" M 5 6 C 5 3.24 7.24 1 10 1 C 12.76 1 15 3.24 15 6 C 15 8.76 12.76 11 10 11 C 7.24 11 5 8.76 5 6 Z  M 6.5 6 C 6.5 5.07 6.87 4.18 7.53 3.53 C 8.18 2.87 9.07 2.5 10 2.5 C 10.93 2.5 11.82 2.87 12.47 3.53 C 13.13 4.18 13.5 5.07 13.5 6 C 13.5 6.93 13.13 7.82 12.47 8.47 C 11.82 9.13 10.93 9.5 10 9.5 C 9.07 9.5 8.18 9.13 7.53 8.47 C 6.87 7.82 6.5 6.93 6.5 6 Z " fill-rule="evenodd" fill="rgb(224,224,224)"/></g></svg>